<svg width="100" xmlns="http://www.w3.org/2000/svg" height="100" fill="none"><g data-testid="Board"><defs><clipPath id="a" class="frame-clip frame-clip-def"><rect rx="0" ry="0" width="100" height="100"/></clipPath></defs><g clip-path="url(#a)"><g class="fills"><rect rx="0" ry="0" width="100" height="100" class="frame-background"/></g><g class="frame-children"><path d="M0 0Zh100v100H0V0Zm10 90v10h10V90H10ZV80H0v20h10m80-90V0H80v10h10Zv10h10V0H90m0 90h10V80H90v10ZH80v10h20V90M10 10H0v10h10V10Zh10V0H0v10" style="fill: rgb(0, 0, 0); fill-opacity: 1;" class="fills" data-testid="Exclude"/><g data-testid="Group"><rect rx="0" ry="0" x="28" y="58" width="15" height="15" style="fill: rgb(255, 255, 255); fill-opacity: 1;" class="fills" data-testid="Rectangle"/><rect rx="0" ry="0" x="31" y="43" width="15" height="15" style="fill: rgb(255, 255, 255); fill-opacity: 1;" class="fills" data-testid="Rectangle"/><rect rx="0" ry="0" x="54" y="43" width="15" height="15" style="fill: rgb(255, 255, 255); fill-opacity: 1;" class="fills" data-testid="Rectangle"/><rect rx="0" ry="0" x="58" y="28" width="15" height="15" style="fill: rgb(255, 255, 255); fill-opacity: 1;" class="fills" data-testid="Rectangle"/><rect rx="0" ry="0" x="34" y="28" width="15" height="15" style="fill: rgb(255, 255, 255); fill-opacity: 1;" class="fills" data-testid="Rectangle"/></g></g></g></g></svg>