<svg width="530" xmlns="http://www.w3.org/2000/svg" height="152.502" fill="none"><g data-testid="Board"><defs><clipPath id="a" class="frame-clip frame-clip-def"><rect rx="0" ry="0" width="530" height="152.502"/></clipPath></defs><g clip-path="url(#a)"><g class="fills"><rect width="530" height="152.502" class="frame-background" style="fill: rgb(0, 17, 255); fill-opacity: 1;" ry="0" rx="0"/></g><g data-testid="Group" class="frame-children"><g data-testid="Path"><path d="M652.006 108.502 716.508 44l64.5 64.5" class="fills"/><g class="strokes"><path d="M652.006 108.502 716.508 44l64.5 64.5" style="fill: none; stroke-width: 30; stroke: rgb(255, 89, 89); stroke-opacity: 1; stroke-linecap: square;" class="stroke-shape"/></g></g><g data-testid="Path"><path d="M523.004 108.502 587.506 44l64.5 64.5" class="fills"/><g class="strokes"><path d="M523.004 108.502 587.506 44l64.5 64.5" style="fill: none; stroke-width: 30; stroke: rgb(255, 89, 89); stroke-opacity: 1; stroke-linecap: square;" class="stroke-shape"/></g></g><g data-testid="Path"><path d="M394.002 108.502 458.504 44l64.5 64.5" class="fills"/><g class="strokes"><path d="M394.002 108.502 458.504 44l64.5 64.5" style="fill: none; stroke-width: 30; stroke: rgb(255, 89, 89); stroke-opacity: 1; stroke-linecap: square;" class="stroke-shape"/></g></g><g data-testid="Path"><path d="M265 108.502 329.502 44l64.5 64.5" class="fills"/><g class="strokes"><path d="M265 108.502 329.502 44l64.5 64.5" style="fill: none; stroke-width: 30; stroke: rgb(255, 89, 89); stroke-opacity: 1; stroke-linecap: square;" class="stroke-shape"/></g></g><g data-testid="Path"><path d="M135.998 108.502 200.5 44l64.5 64.5" class="fills"/><g class="strokes"><path d="M135.998 108.502 200.5 44l64.5 64.5" style="fill: none; stroke-width: 30; stroke: rgb(255, 89, 89); stroke-opacity: 1; stroke-linecap: square;" class="stroke-shape"/></g></g><g data-testid="Path"><path d="M6.996 108.502 71.498 44l64.5 64.5" class="fills"/><g class="strokes"><path d="M6.996 108.502 71.498 44l64.5 64.5" style="fill: none; stroke-width: 30; stroke: rgb(255, 89, 89); stroke-opacity: 1; stroke-linecap: square;" class="stroke-shape"/></g></g><g data-testid="Path"><path d="M-122.006 108.502-57.504 44l64.5 64.5" class="fills"/><g class="strokes"><path d="M-122.006 108.502-57.504 44l64.5 64.5" style="fill: none; stroke-width: 30; stroke: rgb(255, 89, 89); stroke-opacity: 1; stroke-linecap: square;" class="stroke-shape"/></g></g><g data-testid="Path"><path d="M-251.008 108.502-186.506 44l64.5 64.5" class="fills"/><g class="strokes"><path d="M-251.008 108.502-186.506 44l64.5 64.5" style="fill: none; stroke-width: 30; stroke: rgb(255, 89, 89); stroke-opacity: 1; stroke-linecap: square;" class="stroke-shape"/></g></g></g></g></g></svg>